<svg xmlns="http://www.w3.org/2000/svg" viewBox="0 50 300 300"><defs><linearGradient id="b" x1="0" y1="0" x2=".42" y2="1"><stop offset="0" stop-color="#25351b"/><stop offset=".68" stop-color="#080c18"/><stop offset="1" stop-color="#04060c"/></linearGradient><radialGradient id="g1" cx="225" cy="64" r="200" gradientUnits="userSpaceOnUse"><stop offset="0" stop-color="#a3e635" stop-opacity=".38"/><stop offset=".62" stop-color="#a3e635" stop-opacity="0"/></radialGradient><radialGradient id="g2" cx="24" cy="336" r="220" gradientUnits="userSpaceOnUse"><stop offset="0" stop-color="#cffe26" stop-opacity=".32"/><stop offset=".65" stop-color="#cffe26" stop-opacity="0"/></radialGradient><linearGradient id="v" x1="0" y1="0" x2="0" y2="1"><stop offset="0" stop-color="#04060c" stop-opacity=".08"/><stop offset=".35" stop-color="#04060c" stop-opacity=".04"/><stop offset="1" stop-color="#04060c" stop-opacity=".78"/></linearGradient></defs><rect x="0" y="0" width="300" height="400" fill="url(#b)"/><rect x="0" y="0" width="300" height="400" fill="url(#g1)"/><rect x="0" y="0" width="300" height="400" fill="url(#g2)"/><path fill="#a3e635" fill-opacity=".08" d="M-42 394L182-12h112L84 410z"/><path fill="none" stroke="#e2e8ff" stroke-opacity=".08" stroke-width="1" d="M16 351h268M25 318h250M35 285h230M46 252h208M58 219h184"/><path fill="#060914" stroke="none" d="M20 301q45-64 92-28t84-15q42-35 84 9v93H20z"/><g><rect fill="#364c2d" stroke="#a3e635" stroke-opacity=".46" stroke-width="2" x="73" y="227" width="112" height="44" rx="13"/><path fill="#a3e635" stroke="none" d="M101 227l15-30h47l18 30z"/><path fill="none" stroke-linecap="round" stroke-linejoin="round" stroke="#cffe26" stroke-width="8" d="M119 198l87-50"/><circle fill="#cffe26" cx="99" cy="275" r="22"/><circle fill="#cffe26" cx="159" cy="275" r="22"/></g><path fill="none" stroke="#cffe26" stroke-width="8" stroke-linecap="round" d="M208 145q32-15 56-1"/><rect x="0" y="0" width="300" height="400" fill="url(#v)"/></svg>
