<svg xmlns="http://www.w3.org/2000/svg" viewBox="0 50 300 300"><defs><linearGradient id="b" x1="0" y1="0" x2=".42" y2="1"><stop offset="0" stop-color="#361e34"/><stop offset=".68" stop-color="#080c18"/><stop offset="1" stop-color="#04060c"/></linearGradient><radialGradient id="g1" cx="225" cy="64" r="200" gradientUnits="userSpaceOnUse"><stop offset="0" stop-color="#f472b6" stop-opacity=".38"/><stop offset=".62" stop-color="#f472b6" stop-opacity="0"/></radialGradient><radialGradient id="g2" cx="24" cy="336" r="220" gradientUnits="userSpaceOnUse"><stop offset="0" stop-color="#ff8aa7" stop-opacity=".32"/><stop offset=".65" stop-color="#ff8aa7" stop-opacity="0"/></radialGradient><linearGradient id="v" x1="0" y1="0" x2="0" y2="1"><stop offset="0" stop-color="#04060c" stop-opacity=".08"/><stop offset=".35" stop-color="#04060c" stop-opacity=".04"/><stop offset="1" stop-color="#04060c" stop-opacity=".78"/></linearGradient></defs><rect x="0" y="0" width="300" height="400" fill="url(#b)"/><rect x="0" y="0" width="300" height="400" fill="url(#g1)"/><rect x="0" y="0" width="300" height="400" fill="url(#g2)"/><path fill="#f472b6" fill-opacity=".08" d="M-42 394L182-12h112L84 410z"/><path fill="none" stroke="#e2e8ff" stroke-opacity=".08" stroke-width="1" d="M16 351h268M25 318h250M35 285h230M46 252h208M58 219h184"/><g><path fill="#4a2f4d" stroke="none" stroke-opacity=".46" stroke-width="2" d="M43 116q53-37 106 0v96q-53 63-106 0z"/><path fill="#ff8aa7" stroke="none" d="M151 103q53-37 106 0v96q-53 63-106 0z"/><path fill="#07101d" d="M67 151q15-15 30 0m17 0q15-15 30 0m33-13q15 15 30 0m17 0q15 15 30 0"/><path fill="none" stroke-linecap="round" stroke-linejoin="round" stroke="#07101d" stroke-width="6" d="M75 189q27 24 54 0m47 13q27-24 54 0"/></g><path fill="none" stroke-linecap="round" stroke-linejoin="round" stroke="#e2e8ff" stroke-opacity=".17" stroke-width="2" d="M150 42v276M59 342h182"/><rect x="0" y="0" width="300" height="400" fill="url(#v)"/></svg>
