<svg xmlns="http://www.w3.org/2000/svg" viewBox="0 50 300 300"><defs><linearGradient id="b" x1="0" y1="0" x2=".42" y2="1"><stop offset="0" stop-color="#0c3140"/><stop offset=".68" stop-color="#080c18"/><stop offset="1" stop-color="#04060c"/></linearGradient><radialGradient id="g1" cx="225" cy="64" r="200" gradientUnits="userSpaceOnUse"><stop offset="0" stop-color="#22d3ee" stop-opacity=".38"/><stop offset=".62" stop-color="#22d3ee" stop-opacity="0"/></radialGradient><radialGradient id="g2" cx="24" cy="336" r="220" gradientUnits="userSpaceOnUse"><stop offset="0" stop-color="#4eebdf" stop-opacity=".32"/><stop offset=".65" stop-color="#4eebdf" stop-opacity="0"/></radialGradient><linearGradient id="v" x1="0" y1="0" x2="0" y2="1"><stop offset="0" stop-color="#04060c" stop-opacity=".08"/><stop offset=".35" stop-color="#04060c" stop-opacity=".04"/><stop offset="1" stop-color="#04060c" stop-opacity=".78"/></linearGradient></defs><rect x="0" y="0" width="300" height="400" fill="url(#b)"/><rect x="0" y="0" width="300" height="400" fill="url(#g1)"/><rect x="0" y="0" width="300" height="400" fill="url(#g2)"/><path fill="#22d3ee" fill-opacity=".08" d="M-42 394L182-12h112L84 410z"/><path fill="none" stroke="#e2e8ff" stroke-opacity=".08" stroke-width="1" d="M16 351h268M25 318h250M35 285h230M46 252h208M58 219h184"/><g><circle fill="#15475b" stroke="#22d3ee" stroke-opacity=".46" stroke-width="2" cx="78" cy="123" r="45"/><circle fill="#4eebdf" cx="192" cy="105" r="35"/><circle fill="#15475b" stroke="#22d3ee" stroke-opacity=".46" stroke-width="2" cx="224" cy="225" r="50"/><circle fill="#22d3ee" cx="91" cy="254" r="40"/><text font-family="system-ui, sans-serif" font-weight="800" fill="#07101d" font-size="38" text-anchor="middle" font-style="italic" x="78" y="138">B</text><text font-family="system-ui, sans-serif" font-weight="800" fill="#07101d" font-size="38" text-anchor="middle" font-style="italic" x="192" y="116">7</text><text font-family="system-ui, sans-serif" font-weight="800" fill="#07101d" font-size="38" text-anchor="middle" font-style="italic" x="224" y="241">O</text><text font-family="system-ui, sans-serif" font-weight="800" fill="#07101d" font-size="38" text-anchor="middle" font-style="italic" x="91" y="267">5</text></g><path fill="none" stroke="#4eebdf" stroke-width="8" stroke-linecap="round" d="M43 342Q132 294 272 279"/><rect x="0" y="0" width="300" height="400" fill="url(#v)"/></svg>
